<?xml version="1.0" standalone="no"?>
<!DOCTYPE svg PUBLIC "-//W3C//DTD SVG 20010904//EN"
 "http://www.w3.org/TR/2001/REC-SVG-20010904/DTD/svg10.dtd">
<svg version="1.0" xmlns="http://www.w3.org/2000/svg"
 width="500.000000pt" height="500.000000pt" viewBox="0 0 500.000000 500.000000"
 preserveAspectRatio="xMidYMid meet">

<g transform="translate(0.000000,500.000000) scale(0.100000,-0.100000)"
fill="#000000" stroke="none">
<path d="M803 2993 l-303 -3 0 -509 0 -508 466 -7 c256 -3 1100 -3 1875 0
l1409 7 0 509 0 508 -577 0 c-318 0 -1026 2 -1573 3 -547 2 -1131 2 -1297 0z
m3325 -510 l2 -393 -850 0 -850 0 0 395 0 395 848 -2 847 -3 3 -392z m-2748
307 l0 -70 -285 0 -285 0 0 -215 0 -215 215 0 215 0 0 75 0 75 -145 0 -145 0
0 70 0 70 215 0 215 0 0 -162 c0 -182 -8 -209 -72 -248 -31 -18 -51 -20 -283
-20 -232 0 -252 2 -283 20 -18 11 -41 34 -52 52 -18 31 -20 51 -20 283 0 277
3 295 65 335 28 19 48 20 338 20 l307 0 0 -70z m858 3 l-3 -68 -287 -3 -288
-2 0 -70 0 -69 239 -3 c224 -3 241 -4 267 -24 62 -46 69 -66 69 -187 0 -129
-12 -161 -75 -196 -36 -20 -52 -21 -339 -21 l-301 0 0 70 0 70 285 0 285 0 0
75 0 75 -239 0 -239 0 -32 26 c-50 43 -60 72 -60 184 0 112 10 141 60 184 l32
26 314 0 315 0 -3 -67z"/>
<path d="M2540 2730 l0 -50 95 0 95 0 0 -240 0 -240 60 0 60 0 0 240 0 240 90
0 90 0 0 50 0 50 -245 0 -245 0 0 -50z"/>
<path d="M3182 2629 c-69 -35 -96 -85 -101 -187 -2 -61 1 -95 14 -127 50 -132
235 -168 337 -65 44 44 47 55 16 64 -45 12 -77 6 -102 -19 -35 -35 -79 -33
-117 4 -21 22 -29 39 -29 65 l0 36 140 0 140 0 0 33 c0 52 -27 129 -56 161
-56 59 -162 74 -242 35z m140 -60 c18 -10 48 -65 48 -89 0 -6 -33 -10 -85 -10
-79 0 -85 1 -85 20 0 26 26 77 42 83 22 9 59 7 80 -4z"/>
<path d="M3652 2629 c-54 -27 -88 -77 -103 -152 -14 -69 0 -154 33 -203 83
-121 308 -102 357 29 17 44 14 47 -44 47 -49 0 -57 -3 -65 -24 -5 -13 -19 -31
-32 -40 -54 -38 -110 -4 -128 76 -17 83 6 187 45 202 49 18 115 -11 115 -51 0
-9 17 -13 60 -13 33 0 60 2 60 5 0 19 -32 74 -56 96 -58 53 -166 65 -242 28z"/>
</g>
</svg>
