<?xml version="1.0" standalone="no"?>
<!DOCTYPE svg PUBLIC "-//W3C//DTD SVG 20010904//EN"
 "http://www.w3.org/TR/2001/REC-SVG-20010904/DTD/svg10.dtd">
<svg version="1.0" xmlns="http://www.w3.org/2000/svg"
 width="200.000000pt" height="200.000000pt" viewBox="0 0 200.000000 200.000000"
 preserveAspectRatio="xMidYMid meet">
<metadata>
Created by potrace 1.14, written by Peter Selinger 2001-2017
</metadata>
<g transform="translate(0.000000,200.000000) scale(0.100000,-0.100000)"
fill="#000000" stroke="none">
<path d="M95 1251 c-3 -2 -5 -116 -5 -253 l0 -249 920 1 c506 1 921 4 921 8 4
23 3 492 -1 493 -17 4 -1831 4 -1835 0z m1776 -65 c0 -6 1 -92 2 -191 l2 -180
-417 -3 -418 -2 0 195 0 195 415 -1 c298 -1 415 -5 416 -13z m-1351 -31 l0
-35 -112 1 c-62 0 -125 0 -140 0 l-28 -1 0 -105 0 -106 108 3 c95 3 107 5 106
21 -1 9 -2 25 -3 35 -1 15 -10 18 -58 17 -75 -2 -83 1 -83 36 l0 29 105 0 105
0 1 -32 c1 -54 -2 -122 -7 -139 -8 -29 -47 -36 -176 -35 -168 1 -162 -5 -164
169 -1 183 -8 177 193 177 l153 0 0 -35z m423 21 c3 -8 3 -23 1 -33 -5 -18
-16 -19 -145 -19 l-139 1 0 -37 0 -38 110 0 c157 0 175 -12 171 -115 -1 -39
-6 -55 -26 -72 -23 -20 -33 -21 -172 -20 l-148 2 -3 33 -3 32 140 0 141 0 0
35 c0 19 -3 36 -7 36 -5 1 -59 2 -120 3 -140 2 -148 8 -148 100 0 103 6 106
190 106 122 0 154 -3 158 -14z"/>
<path d="M1092 1128 c2 -19 11 -24 48 -28 l45 -5 1 -105 c1 -58 2 -110 3 -116
1 -9 24 -12 52 -5 3 0 5 52 5 114 l0 112 41 3 c30 2 42 8 46 22 3 10 2 21 -1
24 -3 3 -59 6 -124 6 -118 0 -119 0 -116 -22z"/>
<path d="M1423 1083 c-13 -2 -32 -16 -44 -31 -30 -38 -24 -136 11 -164 44 -36
96 -36 138 0 26 23 27 28 6 36 -9 4 -28 -1 -41 -9 -28 -19 -60 -12 -68 15 -10
31 0 36 65 35 33 -1 63 1 65 5 8 13 -15 77 -33 92 -19 18 -66 28 -99 21z m67
-52 c15 -29 13 -31 -30 -31 -40 0 -45 5 -34 34 9 22 51 20 64 -3z"/>
<path d="M1644 1076 c-49 -22 -73 -111 -44 -166 31 -59 148 -60 179 -1 19 35
-26 44 -59 11 -24 -24 -34 -25 -54 -4 -18 18 -21 85 -5 115 11 22 40 19 71 -8
10 -9 25 -12 37 -8 17 5 18 9 9 24 -26 43 -83 58 -134 37z"/>
</g>
</svg>
