<svg xmlns="http://www.w3.org/2000/svg" width="146" height="146" viewBox="0 0 146 146"><title>001-business</title><rect x="0.5" y="0.5" width="145" height="145" fill="none"/><path d="M40.33,79a4.26,4.26,0,0,1,.62,5.94l-0.38.45-1.74,2a4.25,4.25,0,0,1-5.93.37l-0.07-.06-0.1-.08a4.26,4.26,0,0,1-.62-5.93l1.62-1.9,0.5-.58a4.26,4.26,0,0,1,5.94-.36l0.07,0.06Z" fill="#fff" stroke="#000" stroke-miterlimit="10" stroke-width="0.8"/><path d="M48.33,85a5.39,5.39,0,0,1,0,7.86L45.68,96a5.15,5.15,0,0,1-7.15.67l-0.1-.08-0.1-.09a5.15,5.15,0,0,1-.52-7.19l2.64-3.1a6.11,6.11,0,0,1,.43-0.56A5.39,5.39,0,0,1,48.33,85Z" fill="#fff" stroke="#000" stroke-miterlimit="10" stroke-width="0.8"/><path d="M56.33,93a5,5,0,0,1,.72,6.93l-2.46,2.9a5,5,0,0,1-6.93.43l-0.09-.07-0.11-.1a5,5,0,0,1-.71-6.93L49,93.48l0.22-.26a5,5,0,0,1,6.94-.42l0.09,0.07Z" fill="#fff" stroke="#000" stroke-miterlimit="10" stroke-width="0.8"/><path d="M64.61,99.55a4.61,4.61,0,0,1,.66,6.41L63,108.64a4.59,4.59,0,0,1-6.41.39L56.5,109l-0.1-.09a4.6,4.6,0,0,1-.66-6.41l1.82-2.15L58,99.79a4.6,4.6,0,0,1,6.42-.39l0.08,0.07Z" fill="#fff" stroke="#000" stroke-miterlimit="10" stroke-width="0.8"/><polygon points="113.26 75.47 104.41 52.35 102.73 47.97 127.13 38.64 127.13 77.45 115.8 82.1 113.26 75.47" fill="#ed9180"/><path d="M56.19,55.79l4-5a1.58,1.58,0,0,1,.9-0.57l13.5-2.82a8,8,0,0,1,5.9.07l16.67,7.17,6-1.78,1.27-.49,8.86,23.12-4.93,3-1.6,5.6L88.07,73.64l0.06-.3a14.38,14.38,0,0,1-5.4-2.3,15.12,15.12,0,0,1-6-9.6h-10a11.36,11.36,0,0,1-17.2,2.8Z" fill="#fff" stroke="#000" stroke-miterlimit="10" stroke-width="0.8"/><path d="M76.54,104.17l-0.13.25a6.6,6.6,0,0,1-.88,5.82l0,0.06a5.24,5.24,0,0,1-6.57,1.38c-2.07-1.06-2.86-1.43-5.92-3L65.28,106a4.61,4.61,0,0,0-.66-6.41l-0.1-.08-0.08-.07a4.6,4.6,0,0,0-6.42.39l-0.46.54-0.51-.43A5,5,0,0,0,56.33,93l-0.1-.09-0.09-.07a5,5,0,0,0-6.94.42L49,93.48l-0.69-.58a5.21,5.21,0,1,0-7.43-7.25l-0.31-.26,0.38-.45A4.26,4.26,0,0,0,40.33,79l-0.09-.07-0.07-.06a4.26,4.26,0,0,0-5.94.36l-0.5.58-0.6-.5-6.47-.86,8.5-26.5,5.42,1.71,15.61,0.54-6.66,10a11.36,11.36,0,0,0,17.2-2.8h10a15.12,15.12,0,0,0,6,9.6,14.38,14.38,0,0,0,5.4,2.3l-0.06.3L106.73,84.1a5.61,5.61,0,0,1-4.52,10.26l-2.77-1.44a6.78,6.78,0,0,1-.71,5.71l0,0.07a5.28,5.28,0,0,1-6.82,1.62L89,98.84l-0.22.43a7.74,7.74,0,0,1-1.23,6.17l0,0a4.85,4.85,0,0,1-6.06,1.23Z" fill="#fff" stroke="#000" stroke-miterlimit="10" stroke-width="0.8"/><polygon points="35.16 50.33 28.26 73.64 24.93 84.1 15.02 80.67 15.02 39.32 36.33 46.64 35.16 50.33" fill="#a8cbeb"/><path d="M99.45,92.92l-9-4.68" fill="none" stroke="#515f76" stroke-linecap="round" stroke-miterlimit="10" stroke-width="2.4"/><path d="M88.07,73.64L106.73,84.1a5.61,5.61,0,0,1-4.52,10.26l-2.77-1.44" fill="none" stroke="#515f76" stroke-linecap="round" stroke-miterlimit="10" stroke-width="2.4"/><path d="M99.45,92.92h0a6.78,6.78,0,0,1-.71,5.71l0,0.07a5.28,5.28,0,0,1-6.82,1.62L89,98.84l-6.52-3.4" fill="none" stroke="#515f76" stroke-linecap="round" stroke-miterlimit="10" stroke-width="2.4"/><path d="M88.77,99.27a7.74,7.74,0,0,1-1.23,6.17l0,0a4.85,4.85,0,0,1-6.06,1.23l-4.89-2.54-4.47-2.34" fill="none" stroke="#515f76" stroke-linecap="round" stroke-miterlimit="10" stroke-width="2.4"/><polyline points="57.13 54.33 39.78 52.84 34.39 50.98" fill="none" stroke="#515f76" stroke-miterlimit="10" stroke-width="2.4"/><polyline points="112.73 75.3 112.46 75.47 107.53 78.5 105.93 84.1" fill="none" stroke="#515f76" stroke-miterlimit="10" stroke-width="2.4"/><path d="M91.12,73.64a12.34,12.34,0,0,1-3-.3,13.35,13.35,0,0,1-5.4-2.7c-1-.8-4.92-3.86-6-8.87,0-.14-0.05-0.26-0.06-0.33h-10a11.36,11.36,0,0,1-17.2,2.8l6.66-8.45,4-5a1.58,1.58,0,0,1,.9-0.57l13.5-2.82a8,8,0,0,1,5.9.07l16.67,7.17,6-1.78" fill="none" stroke="#515f76" stroke-linecap="round" stroke-linejoin="round" stroke-width="2.4"/><line x1="33.13" y1="79.3" x2="28.26" y2="77.64" fill="none" stroke="#515f76" stroke-miterlimit="10" stroke-width="2.4"/><path d="M40.57,85.38l-1.74,2a4.25,4.25,0,0,1-5.93.37l-0.07-.06-0.1-.08a4.26,4.26,0,0,1-.62-5.93l1.62-1.9,0.5-.58a4.26,4.26,0,0,1,5.94-.36l0.07,0.06L40.33,79a4.26,4.26,0,0,1,.62,5.94Z" fill="none" stroke="#515f76" stroke-miterlimit="10" stroke-width="2.4"/><path d="M48.31,92.89L45.68,96a5.15,5.15,0,0,1-7.15.67l-0.1-.08-0.1-.09a5.15,5.15,0,0,1-.52-7.19l2.64-3.1a6.11,6.11,0,0,1,.43-0.56A5.21,5.21,0,1,1,48.31,92.89Z" fill="none" stroke="#515f76" stroke-miterlimit="10" stroke-width="2.4"/><path d="M57.05,99.89l-2.46,2.9a5,5,0,0,1-6.93.43l-0.09-.07-0.11-.1a5,5,0,0,1-.71-6.93L49,93.48l0.22-.26a5,5,0,0,1,6.94-.42l0.09,0.07L56.33,93A5,5,0,0,1,57.05,99.89Z" fill="none" stroke="#515f76" stroke-miterlimit="10" stroke-width="2.4"/><path d="M63,108.64a4.59,4.59,0,0,1-6.41.39L56.5,109l-0.1-.09a4.6,4.6,0,0,1-.66-6.41l1.82-2.15L58,99.79a4.6,4.6,0,0,1,6.42-.39l0.08,0.07,0.1,0.08a4.61,4.61,0,0,1,.66,6.41Z" fill="none" stroke="#515f76" stroke-miterlimit="10" stroke-width="2.4"/><path d="M76.41,104.42a6.6,6.6,0,0,1-.88,5.82l0,0.06a5.24,5.24,0,0,1-6.57,1.38c-2.07-1.06-2.86-1.43-5.92-3" fill="none" stroke="#515f76" stroke-linecap="round" stroke-miterlimit="10" stroke-width="2.4"/><polygon points="35.11 50.49 35.16 50.33 36.33 46.64 15.02 39.32 14.97 45.18 35.11 50.49" fill="#d2e1ef"/><path d="M15,39.32l20.57,7.06a0.8,0.8,0,0,1,.5,1L25.18,83.33a0.8,0.8,0,0,1-1,.52L15,80.67" fill="none" stroke="#515f76" stroke-linecap="round" stroke-miterlimit="10" stroke-width="2.4"/><polygon points="102.17 47.97 103.22 53.06 126 42.64 126 38.64 102.17 47.97" fill="#eeb8a9"/><path d="M127.13,77.45l-10.6,4.38a0.8,0.8,0,0,1-1-.47L103,48.73a0.8,0.8,0,0,1,.48-1l23.63-9.06" fill="none" stroke="#515f76" stroke-linecap="round" stroke-linejoin="round" stroke-width="2.4"/><circle cx="138.73" cy="81.02" r="2" fill="none" stroke="#b8b9ba" stroke-linecap="round" stroke-miterlimit="10" stroke-width="1.6"/><circle cx="125.53" cy="89.84" r="1.6" fill="#b8b9ba"/><line x1="135.4" y1="96.1" x2="138.6" y2="99.3" fill="none" stroke="#a8cbeb" stroke-linecap="round" stroke-miterlimit="10" stroke-width="1.6"/><line x1="138.6" y1="96.1" x2="135.4" y2="99.3" fill="none" stroke="#a8cbeb" stroke-linecap="round" stroke-miterlimit="10" stroke-width="1.6"/><path d="M12.77,18.2L15.1,17a0.08,0.08,0,0,1,.12.08l-0.44,2.59,2,1.95L14,22l-1.24,2.5L11.54,22l-2.6-.38a0.08,0.08,0,0,1,0-.14l1.88-1.84L10.3,16.9Z" fill="#ed9180"/><circle cx="23.36" cy="28.64" r="2" fill="none" stroke="#b8b9ba" stroke-linecap="round" stroke-miterlimit="10" stroke-width="1.6"/><circle cx="6.07" cy="32.24" r="1.6" fill="#b8b9ba"/><line x1="75" y1="122" x2="75" y2="128" fill="none" stroke="#b8b9ba" stroke-linecap="round" stroke-miterlimit="10" stroke-width="2"/><line x1="78" y1="125" x2="72" y2="125" fill="none" stroke="#b8b9ba" stroke-linecap="round" stroke-miterlimit="10" stroke-width="2"/><circle cx="61.47" cy="121.04" r="1.6" fill="#b8b9ba"/></svg>